<mxfile host="app.diagrams.net" modified="2020-09-23T10:41:17.930Z" agent="5.0 (Windows)" etag="ZBpQfYLIfopDGJQlvi-m" version="13.7.4" type="github" pages="4">
  <diagram id="1DNxS5qw0rlBSGLivTUF" name="Page-1">
    <mxGraphModel dx="1718" dy="479" grid="1" gridSize="10" guides="1" tooltips="1" connect="1" arrows="1" fold="1" page="1" pageScale="1" pageWidth="850" pageHeight="1100" background="none" math="0" shadow="0">
      <root>
        <mxCell id="0" />
        <mxCell id="1" parent="0" />
        <mxCell id="cO-JRu7kramHAGc49j1C-2" value="Land in Email Template List page" style="strokeWidth=2;html=1;shape=mxgraph.flowchart.start_1;whiteSpace=wrap;" parent="1" vertex="1">
          <mxGeometry x="300" y="20" width="100" height="70" as="geometry" />
        </mxCell>
        <mxCell id="cO-JRu7kramHAGc49j1C-3" value="" style="strokeWidth=2;html=1;shape=mxgraph.flowchart.annotation_2;align=left;labelPosition=right;pointerEvents=1;direction=south;" parent="1" vertex="1">
          <mxGeometry x="160" y="280" width="380" height="50" as="geometry" />
        </mxCell>
        <mxCell id="cO-JRu7kramHAGc49j1C-7" value="" style="line;strokeWidth=2;direction=south;html=1;" parent="1" vertex="1">
          <mxGeometry x="345" y="90" width="10" height="30" as="geometry" />
        </mxCell>
        <mxCell id="cO-JRu7kramHAGc49j1C-9" value="&lt;div&gt;Is he admin&lt;/div&gt;" style="strokeWidth=2;html=1;shape=mxgraph.flowchart.decision;whiteSpace=wrap;" parent="1" vertex="1">
          <mxGeometry x="310" y="210" width="80" height="70" as="geometry" />
        </mxCell>
        <mxCell id="cO-JRu7kramHAGc49j1C-12" value="&lt;div&gt;Yes&lt;/div&gt;&lt;div&gt;&lt;br&gt;&lt;/div&gt;" style="text;html=1;align=center;verticalAlign=middle;resizable=0;points=[];autosize=1;" parent="1" vertex="1">
          <mxGeometry x="210" y="280" width="40" height="30" as="geometry" />
        </mxCell>
        <mxCell id="cO-JRu7kramHAGc49j1C-13" value="&lt;div&gt;No&lt;/div&gt;" style="text;html=1;align=center;verticalAlign=middle;resizable=0;points=[];autosize=1;" parent="1" vertex="1">
          <mxGeometry x="440" y="280" width="30" height="20" as="geometry" />
        </mxCell>
        <mxCell id="cO-JRu7kramHAGc49j1C-14" value="Is it Built in template?" style="strokeWidth=2;html=1;shape=mxgraph.flowchart.decision;whiteSpace=wrap;" parent="1" vertex="1">
          <mxGeometry x="110" y="315" width="100" height="80" as="geometry" />
        </mxCell>
        <mxCell id="cO-JRu7kramHAGc49j1C-17" value="" style="line;strokeWidth=2;direction=south;html=1;" parent="1" vertex="1">
          <mxGeometry x="67.5" y="395" width="185" height="20" as="geometry" />
        </mxCell>
        <mxCell id="cO-JRu7kramHAGc49j1C-21" value="Fetch all custom template&lt;br&gt;Fetch Built in template&lt;br&gt;&lt;div&gt;Fetch template category&lt;/div&gt; " style="shape=parallelogram;html=1;strokeWidth=2;perimeter=parallelogramPerimeter;whiteSpace=wrap;rounded=1;arcSize=12;size=0.23;" parent="1" vertex="1">
          <mxGeometry x="205" y="110" width="260" height="80" as="geometry" />
        </mxCell>
        <mxCell id="cO-JRu7kramHAGc49j1C-27" value="" style="line;strokeWidth=2;direction=south;html=1;" parent="1" vertex="1">
          <mxGeometry x="345" y="190" width="10" height="20" as="geometry" />
        </mxCell>
        <mxCell id="cO-JRu7kramHAGc49j1C-33" value="Check status " style="strokeWidth=2;html=1;shape=mxgraph.flowchart.decision;whiteSpace=wrap;" parent="1" vertex="1">
          <mxGeometry x="110" y="410" width="100" height="100" as="geometry" />
        </mxCell>
        <mxCell id="cO-JRu7kramHAGc49j1C-34" value="Based on status&lt;br&gt;We separate it in &lt;br&gt;three section: 1. Publish&lt;br&gt;2. In review&lt;br&gt;3. Draft " style="text;html=1;align=center;verticalAlign=middle;resizable=0;points=[];autosize=1;" parent="1" vertex="1">
          <mxGeometry x="-30" y="450" width="150" height="80" as="geometry" />
        </mxCell>
        <mxCell id="cO-JRu7kramHAGc49j1C-35" value="Show template by category" style="strokeWidth=2;html=1;shape=mxgraph.flowchart.terminator;whiteSpace=wrap;" parent="1" vertex="1">
          <mxGeometry x="100" y="540" width="120" height="60" as="geometry" />
        </mxCell>
        <mxCell id="cO-JRu7kramHAGc49j1C-36" value="" style="line;strokeWidth=2;direction=south;html=1;" parent="1" vertex="1">
          <mxGeometry x="155" y="510" width="10" height="30" as="geometry" />
        </mxCell>
        <mxCell id="cO-JRu7kramHAGc49j1C-37" style="edgeStyle=orthogonalEdgeStyle;rounded=0;orthogonalLoop=1;jettySize=auto;html=1;exitX=0.5;exitY=1;exitDx=0;exitDy=0;exitPerimeter=0;" parent="1" source="cO-JRu7kramHAGc49j1C-35" target="cO-JRu7kramHAGc49j1C-35" edge="1">
          <mxGeometry relative="1" as="geometry" />
        </mxCell>
        <mxCell id="cO-JRu7kramHAGc49j1C-39" value="Is it Built in template?" style="strokeWidth=2;html=1;shape=mxgraph.flowchart.decision;whiteSpace=wrap;" parent="1" vertex="1">
          <mxGeometry x="490" y="330" width="100" height="80" as="geometry" />
        </mxCell>
        <mxCell id="cO-JRu7kramHAGc49j1C-45" value="&lt;div&gt;Yes&lt;/div&gt;&lt;div&gt;&lt;br&gt;&lt;/div&gt;" style="text;html=1;align=center;verticalAlign=middle;resizable=0;points=[];autosize=1;" parent="1" vertex="1">
          <mxGeometry x="160" y="390" width="40" height="30" as="geometry" />
        </mxCell>
        <mxCell id="cO-JRu7kramHAGc49j1C-46" value="" style="strokeWidth=2;html=1;shape=mxgraph.flowchart.annotation_2;align=left;labelPosition=right;pointerEvents=1;direction=south;" parent="1" vertex="1">
          <mxGeometry x="465" y="410" width="150" height="50" as="geometry" />
        </mxCell>
        <mxCell id="cO-JRu7kramHAGc49j1C-49" value="No" style="text;html=1;align=center;verticalAlign=middle;resizable=0;points=[];autosize=1;" parent="1" vertex="1">
          <mxGeometry x="565" y="410" width="30" height="20" as="geometry" />
        </mxCell>
        <mxCell id="cO-JRu7kramHAGc49j1C-50" value="&lt;div&gt;Yes&lt;/div&gt;" style="text;html=1;align=center;verticalAlign=middle;resizable=0;points=[];autosize=1;" parent="1" vertex="1">
          <mxGeometry x="480" y="410" width="40" height="20" as="geometry" />
        </mxCell>
        <mxCell id="cO-JRu7kramHAGc49j1C-51" value="Show template by category" style="strokeWidth=2;html=1;shape=mxgraph.flowchart.terminator;whiteSpace=wrap;" parent="1" vertex="1">
          <mxGeometry x="400" y="460" width="120" height="60" as="geometry" />
        </mxCell>
        <mxCell id="cO-JRu7kramHAGc49j1C-53" value="&lt;div&gt;Show template in custom template category&lt;/div&gt;" style="strokeWidth=2;html=1;shape=mxgraph.flowchart.terminator;whiteSpace=wrap;" parent="1" vertex="1">
          <mxGeometry x="560" y="460" width="135" height="60" as="geometry" />
        </mxCell>
      </root>
    </mxGraphModel>
  </diagram>
  <diagram id="mXxFb4xeOAoFtqNlRePG" name="Page-2">
    <mxGraphModel dx="868" dy="479" grid="1" gridSize="10" guides="1" tooltips="1" connect="1" arrows="1" fold="1" page="1" pageScale="1" pageWidth="850" pageHeight="1100" math="0" shadow="0">
      <root>
        <mxCell id="-fCcsJid87SUnkDtFPef-0" />
        <mxCell id="-fCcsJid87SUnkDtFPef-1" parent="-fCcsJid87SUnkDtFPef-0" />
        <mxCell id="-fCcsJid87SUnkDtFPef-3" value="&lt;div&gt;Start&lt;/div&gt;Initial Call to&lt;br&gt;fetch data" style="strokeWidth=2;html=1;shape=mxgraph.flowchart.start_1;whiteSpace=wrap;" vertex="1" parent="-fCcsJid87SUnkDtFPef-1">
          <mxGeometry x="359" y="29" width="100" height="60" as="geometry" />
        </mxCell>
        <mxCell id="-fCcsJid87SUnkDtFPef-4" value="" style="strokeWidth=2;html=1;shape=mxgraph.flowchart.annotation_2;align=left;labelPosition=right;pointerEvents=1;direction=south;" vertex="1" parent="-fCcsJid87SUnkDtFPef-1">
          <mxGeometry x="214.38" y="90" width="389.25" height="60" as="geometry" />
        </mxCell>
        <mxCell id="-fCcsJid87SUnkDtFPef-7" value="" style="line;strokeWidth=2;direction=south;html=1;" vertex="1" parent="-fCcsJid87SUnkDtFPef-1">
          <mxGeometry x="404" y="109" width="10" height="40" as="geometry" />
        </mxCell>
        <mxCell id="-fCcsJid87SUnkDtFPef-24" style="edgeStyle=orthogonalEdgeStyle;rounded=0;orthogonalLoop=1;jettySize=auto;html=1;exitX=0.5;exitY=1;exitDx=0;exitDy=0;entryX=0.5;entryY=0;entryDx=0;entryDy=0;" edge="1" parent="-fCcsJid87SUnkDtFPef-1" source="-fCcsJid87SUnkDtFPef-9" target="-fCcsJid87SUnkDtFPef-15">
          <mxGeometry relative="1" as="geometry" />
        </mxCell>
        <mxCell id="-fCcsJid87SUnkDtFPef-9" value="getAllTemplateCategory" style="rounded=1;whiteSpace=wrap;html=1;absoluteArcSize=1;arcSize=14;strokeWidth=2;" vertex="1" parent="-fCcsJid87SUnkDtFPef-1">
          <mxGeometry x="530" y="150" width="160" height="60" as="geometry" />
        </mxCell>
        <mxCell id="xGuFoOQQAvUwmJWJpUjy-3" style="edgeStyle=orthogonalEdgeStyle;rounded=0;orthogonalLoop=1;jettySize=auto;html=1;entryX=0.585;entryY=0.025;entryDx=0;entryDy=0;entryPerimeter=0;" edge="1" parent="-fCcsJid87SUnkDtFPef-1" source="-fCcsJid87SUnkDtFPef-10" target="-fCcsJid87SUnkDtFPef-13">
          <mxGeometry relative="1" as="geometry" />
        </mxCell>
        <mxCell id="-fCcsJid87SUnkDtFPef-10" value="Call,&lt;br&gt;Email: EmailTemplateAPIViewSet&lt;br&gt;SMS:&lt;br&gt;SMSTemplateAPIViewSet" style="rounded=1;whiteSpace=wrap;html=1;absoluteArcSize=1;arcSize=14;strokeWidth=2;" vertex="1" parent="-fCcsJid87SUnkDtFPef-1">
          <mxGeometry x="130" y="250" width="170" height="80" as="geometry" />
        </mxCell>
        <mxCell id="xGuFoOQQAvUwmJWJpUjy-0" value="" style="edgeStyle=orthogonalEdgeStyle;rounded=0;orthogonalLoop=1;jettySize=auto;html=1;" edge="1" parent="-fCcsJid87SUnkDtFPef-1" source="-fCcsJid87SUnkDtFPef-12" target="-fCcsJid87SUnkDtFPef-10">
          <mxGeometry relative="1" as="geometry" />
        </mxCell>
        <mxCell id="-fCcsJid87SUnkDtFPef-12" value="getAllEmailTemplates,&lt;br&gt;getAllSMSTemplates" style="rounded=1;whiteSpace=wrap;html=1;absoluteArcSize=1;arcSize=14;strokeWidth=2;" vertex="1" parent="-fCcsJid87SUnkDtFPef-1">
          <mxGeometry x="140" y="150" width="150" height="60" as="geometry" />
        </mxCell>
        <mxCell id="-fCcsJid87SUnkDtFPef-13" value="Get Data from,&lt;br&gt;Email&lt;br&gt;EmailTemplate,&lt;br&gt;SMS&lt;br&gt;SMSTemplate&lt;br&gt;" style="shape=parallelogram;html=1;strokeWidth=2;perimeter=parallelogramPerimeter;whiteSpace=wrap;rounded=1;arcSize=12;size=0.23;" vertex="1" parent="-fCcsJid87SUnkDtFPef-1">
          <mxGeometry x="95" y="400" width="205" height="80" as="geometry" />
        </mxCell>
        <mxCell id="-fCcsJid87SUnkDtFPef-32" value="" style="edgeStyle=orthogonalEdgeStyle;rounded=0;orthogonalLoop=1;jettySize=auto;html=1;" edge="1" parent="-fCcsJid87SUnkDtFPef-1" source="-fCcsJid87SUnkDtFPef-14" target="-fCcsJid87SUnkDtFPef-16">
          <mxGeometry relative="1" as="geometry">
            <Array as="points">
              <mxPoint x="415" y="330" />
              <mxPoint x="415" y="330" />
            </Array>
          </mxGeometry>
        </mxCell>
        <mxCell id="-fCcsJid87SUnkDtFPef-14" value="Call,&lt;br&gt;Email: BuiltInEmailTemplateAPIViewSet&lt;br&gt;SMS:&lt;br&gt;BuiltInSMSTemplateAPIViewSet" style="rounded=1;whiteSpace=wrap;html=1;absoluteArcSize=1;arcSize=14;strokeWidth=2;" vertex="1" parent="-fCcsJid87SUnkDtFPef-1">
          <mxGeometry x="320" y="250" width="190" height="80" as="geometry" />
        </mxCell>
        <mxCell id="xGuFoOQQAvUwmJWJpUjy-4" style="edgeStyle=orthogonalEdgeStyle;rounded=0;orthogonalLoop=1;jettySize=auto;html=1;entryX=0.553;entryY=0.013;entryDx=0;entryDy=0;entryPerimeter=0;" edge="1" parent="-fCcsJid87SUnkDtFPef-1" source="-fCcsJid87SUnkDtFPef-15" target="-fCcsJid87SUnkDtFPef-17">
          <mxGeometry relative="1" as="geometry" />
        </mxCell>
        <mxCell id="-fCcsJid87SUnkDtFPef-15" value="Call,&lt;br&gt;TemplateCategoryAPIViewSet" style="rounded=1;whiteSpace=wrap;html=1;absoluteArcSize=1;arcSize=14;strokeWidth=2;" vertex="1" parent="-fCcsJid87SUnkDtFPef-1">
          <mxGeometry x="525" y="250" width="170" height="80" as="geometry" />
        </mxCell>
        <mxCell id="-fCcsJid87SUnkDtFPef-16" value="Get Data from,&lt;br&gt;Email&lt;br&gt;BuiltInEmailTemplate,&lt;br&gt;SMS&lt;br&gt;BuiltIInSMSTemplate" style="shape=parallelogram;html=1;strokeWidth=2;perimeter=parallelogramPerimeter;whiteSpace=wrap;rounded=1;arcSize=12;size=0.23;" vertex="1" parent="-fCcsJid87SUnkDtFPef-1">
          <mxGeometry x="300" y="400" width="210" height="80" as="geometry" />
        </mxCell>
        <mxCell id="-fCcsJid87SUnkDtFPef-17" value="Get Data from,&lt;br&gt;TemplateCategory" style="shape=parallelogram;html=1;strokeWidth=2;perimeter=parallelogramPerimeter;whiteSpace=wrap;rounded=1;arcSize=12;size=0.23;" vertex="1" parent="-fCcsJid87SUnkDtFPef-1">
          <mxGeometry x="505" y="400" width="190" height="80" as="geometry" />
        </mxCell>
        <mxCell id="-fCcsJid87SUnkDtFPef-23" style="edgeStyle=orthogonalEdgeStyle;rounded=0;orthogonalLoop=1;jettySize=auto;html=1;exitX=0.5;exitY=1;exitDx=0;exitDy=0;entryX=0.5;entryY=0;entryDx=0;entryDy=0;" edge="1" parent="-fCcsJid87SUnkDtFPef-1" source="-fCcsJid87SUnkDtFPef-18" target="-fCcsJid87SUnkDtFPef-14">
          <mxGeometry relative="1" as="geometry" />
        </mxCell>
        <mxCell id="-fCcsJid87SUnkDtFPef-18" value="Fetch Built in template:&lt;br&gt;getAllBuiltInEmailTemplates,&lt;br&gt;getAllBuiltInSMSTemplates" style="rounded=1;whiteSpace=wrap;html=1;absoluteArcSize=1;arcSize=14;strokeWidth=2;" vertex="1" parent="-fCcsJid87SUnkDtFPef-1">
          <mxGeometry x="332" y="149" width="166" height="60" as="geometry" />
        </mxCell>
        <mxCell id="-fCcsJid87SUnkDtFPef-19" value="&lt;div&gt;Fetch&lt;/div&gt;Custom&lt;br&gt;&lt;div&gt;Template&lt;/div&gt;" style="text;html=1;align=center;verticalAlign=middle;resizable=0;points=[];autosize=1;" vertex="1" parent="-fCcsJid87SUnkDtFPef-1">
          <mxGeometry x="60" y="155" width="70" height="50" as="geometry" />
        </mxCell>
        <mxCell id="-fCcsJid87SUnkDtFPef-20" value="Fetch&lt;br&gt;Template&lt;br&gt;Category" style="text;html=1;align=center;verticalAlign=middle;resizable=0;points=[];autosize=1;" vertex="1" parent="-fCcsJid87SUnkDtFPef-1">
          <mxGeometry x="690" y="155" width="70" height="50" as="geometry" />
        </mxCell>
        <mxCell id="-fCcsJid87SUnkDtFPef-30" value="&lt;div&gt;Show Data in Email and SMS template&lt;/div&gt;" style="text;html=1;align=center;verticalAlign=middle;resizable=0;points=[];autosize=1;" vertex="1" parent="-fCcsJid87SUnkDtFPef-1">
          <mxGeometry x="5" y="30" width="230" height="20" as="geometry" />
        </mxCell>
      </root>
    </mxGraphModel>
  </diagram>
  <diagram id="JnyZ095xHJkMCvKFxCRj" name="Page-3">
    <mxGraphModel dx="868" dy="479" grid="1" gridSize="10" guides="1" tooltips="1" connect="1" arrows="1" fold="1" page="1" pageScale="1" pageWidth="850" pageHeight="1100" math="0" shadow="0">
      <root>
        <mxCell id="YQQYmlaHooakoJt94Tnt-0" />
        <mxCell id="YQQYmlaHooakoJt94Tnt-1" parent="YQQYmlaHooakoJt94Tnt-0" />
        <mxCell id="YQQYmlaHooakoJt94Tnt-2" value="&lt;div&gt;Action in Template List page&lt;/div&gt;&lt;div&gt;&lt;br&gt;&lt;/div&gt;" style="text;html=1;align=center;verticalAlign=middle;resizable=0;points=[];autosize=1;" vertex="1" parent="YQQYmlaHooakoJt94Tnt-1">
          <mxGeometry x="30" y="60" width="170" height="30" as="geometry" />
        </mxCell>
        <mxCell id="YQQYmlaHooakoJt94Tnt-21" value="" style="edgeStyle=orthogonalEdgeStyle;rounded=0;orthogonalLoop=1;jettySize=auto;html=1;" edge="1" parent="YQQYmlaHooakoJt94Tnt-1" source="YQQYmlaHooakoJt94Tnt-19" target="YQQYmlaHooakoJt94Tnt-20">
          <mxGeometry relative="1" as="geometry" />
        </mxCell>
        <mxCell id="YQQYmlaHooakoJt94Tnt-19" value="Send Button&lt;br&gt;Operation" style="strokeWidth=2;html=1;shape=mxgraph.flowchart.start_1;whiteSpace=wrap;" vertex="1" parent="YQQYmlaHooakoJt94Tnt-1">
          <mxGeometry x="350" y="40" width="100" height="60" as="geometry" />
        </mxCell>
        <mxCell id="YQQYmlaHooakoJt94Tnt-23" value="" style="edgeStyle=orthogonalEdgeStyle;rounded=0;orthogonalLoop=1;jettySize=auto;html=1;" edge="1" parent="YQQYmlaHooakoJt94Tnt-1" source="YQQYmlaHooakoJt94Tnt-20" target="YQQYmlaHooakoJt94Tnt-22">
          <mxGeometry relative="1" as="geometry" />
        </mxCell>
        <mxCell id="YQQYmlaHooakoJt94Tnt-20" value="Call:&lt;br&gt;sendTestEmail" style="rounded=1;whiteSpace=wrap;html=1;absoluteArcSize=1;arcSize=14;strokeWidth=2;" vertex="1" parent="YQQYmlaHooakoJt94Tnt-1">
          <mxGeometry x="350" y="130" width="100" height="70" as="geometry" />
        </mxCell>
        <mxCell id="YQQYmlaHooakoJt94Tnt-28" value="" style="edgeStyle=orthogonalEdgeStyle;rounded=0;orthogonalLoop=1;jettySize=auto;html=1;" edge="1" parent="YQQYmlaHooakoJt94Tnt-1" source="YQQYmlaHooakoJt94Tnt-22" target="YQQYmlaHooakoJt94Tnt-25">
          <mxGeometry relative="1" as="geometry" />
        </mxCell>
        <mxCell id="YQQYmlaHooakoJt94Tnt-22" value="Call:&lt;br&gt;SendEmailViewSet" style="rounded=1;whiteSpace=wrap;html=1;absoluteArcSize=1;arcSize=14;strokeWidth=2;" vertex="1" parent="YQQYmlaHooakoJt94Tnt-1">
          <mxGeometry x="340" y="240" width="120" height="90" as="geometry" />
        </mxCell>
        <mxCell id="3F3jtd5peiCfW54x8AI0-3" value="" style="edgeStyle=orthogonalEdgeStyle;rounded=0;orthogonalLoop=1;jettySize=auto;html=1;" edge="1" parent="YQQYmlaHooakoJt94Tnt-1" source="YQQYmlaHooakoJt94Tnt-25" target="3F3jtd5peiCfW54x8AI0-0">
          <mxGeometry relative="1" as="geometry" />
        </mxCell>
        <mxCell id="YQQYmlaHooakoJt94Tnt-25" value="Check patient &lt;br&gt;accept emails/SMS&lt;br&gt;or not" style="strokeWidth=2;html=1;shape=mxgraph.flowchart.decision;whiteSpace=wrap;" vertex="1" parent="YQQYmlaHooakoJt94Tnt-1">
          <mxGeometry x="330" y="370" width="140" height="100" as="geometry" />
        </mxCell>
        <mxCell id="YQQYmlaHooakoJt94Tnt-27" value="1. Check Email Address Valid or not&lt;br&gt;2.Check patient is opt out or not" style="text;html=1;align=center;verticalAlign=middle;resizable=0;points=[];autosize=1;" vertex="1" parent="YQQYmlaHooakoJt94Tnt-1">
          <mxGeometry x="185" y="340" width="210" height="30" as="geometry" />
        </mxCell>
        <mxCell id="YQQYmlaHooakoJt94Tnt-29" value="Send Email/SMS" style="strokeWidth=2;html=1;shape=mxgraph.flowchart.terminator;whiteSpace=wrap;" vertex="1" parent="YQQYmlaHooakoJt94Tnt-1">
          <mxGeometry x="240" y="1130" width="100" height="60" as="geometry" />
        </mxCell>
        <mxCell id="3F3jtd5peiCfW54x8AI0-9" value="" style="edgeStyle=orthogonalEdgeStyle;rounded=0;orthogonalLoop=1;jettySize=auto;html=1;" edge="1" parent="YQQYmlaHooakoJt94Tnt-1" source="3F3jtd5peiCfW54x8AI0-0" target="3F3jtd5peiCfW54x8AI0-1">
          <mxGeometry relative="1" as="geometry" />
        </mxCell>
        <mxCell id="3F3jtd5peiCfW54x8AI0-0" value="Generate Email" style="rounded=1;whiteSpace=wrap;html=1;absoluteArcSize=1;arcSize=14;strokeWidth=2;" vertex="1" parent="YQQYmlaHooakoJt94Tnt-1">
          <mxGeometry x="340" y="500" width="120" height="90" as="geometry" />
        </mxCell>
        <mxCell id="3F3jtd5peiCfW54x8AI0-10" value="" style="edgeStyle=orthogonalEdgeStyle;rounded=0;orthogonalLoop=1;jettySize=auto;html=1;" edge="1" parent="YQQYmlaHooakoJt94Tnt-1" source="3F3jtd5peiCfW54x8AI0-1" target="3F3jtd5peiCfW54x8AI0-5">
          <mxGeometry relative="1" as="geometry" />
        </mxCell>
        <mxCell id="3F3jtd5peiCfW54x8AI0-1" value="get common email template" style="rounded=1;whiteSpace=wrap;html=1;absoluteArcSize=1;arcSize=14;strokeWidth=2;" vertex="1" parent="YQQYmlaHooakoJt94Tnt-1">
          <mxGeometry x="340" y="630" width="120" height="90" as="geometry" />
        </mxCell>
        <mxCell id="3F3jtd5peiCfW54x8AI0-2" value="Pre-build &lt;br&gt;Jinja template" style="text;html=1;align=center;verticalAlign=middle;resizable=0;points=[];autosize=1;" vertex="1" parent="YQQYmlaHooakoJt94Tnt-1">
          <mxGeometry x="465" y="660" width="90" height="30" as="geometry" />
        </mxCell>
        <mxCell id="3F3jtd5peiCfW54x8AI0-4" value="&lt;div&gt;Yes&lt;/div&gt;" style="text;html=1;align=center;verticalAlign=middle;resizable=0;points=[];autosize=1;" vertex="1" parent="YQQYmlaHooakoJt94Tnt-1">
          <mxGeometry x="400" y="470" width="40" height="20" as="geometry" />
        </mxCell>
        <mxCell id="3F3jtd5peiCfW54x8AI0-13" style="edgeStyle=orthogonalEdgeStyle;rounded=0;orthogonalLoop=1;jettySize=auto;html=1;" edge="1" parent="YQQYmlaHooakoJt94Tnt-1" source="3F3jtd5peiCfW54x8AI0-5">
          <mxGeometry relative="1" as="geometry">
            <mxPoint x="290" y="860" as="targetPoint" />
          </mxGeometry>
        </mxCell>
        <mxCell id="3F3jtd5peiCfW54x8AI0-14" style="edgeStyle=orthogonalEdgeStyle;rounded=0;orthogonalLoop=1;jettySize=auto;html=1;entryX=0.5;entryY=0;entryDx=0;entryDy=0;" edge="1" parent="YQQYmlaHooakoJt94Tnt-1" source="3F3jtd5peiCfW54x8AI0-5" target="3F3jtd5peiCfW54x8AI0-7">
          <mxGeometry relative="1" as="geometry">
            <Array as="points">
              <mxPoint x="510" y="800" />
            </Array>
          </mxGeometry>
        </mxCell>
        <mxCell id="3F3jtd5peiCfW54x8AI0-5" value="Is patient id exits " style="strokeWidth=2;html=1;shape=mxgraph.flowchart.decision;whiteSpace=wrap;" vertex="1" parent="YQQYmlaHooakoJt94Tnt-1">
          <mxGeometry x="330" y="750" width="140" height="100" as="geometry" />
        </mxCell>
        <mxCell id="3F3jtd5peiCfW54x8AI0-15" value="" style="edgeStyle=orthogonalEdgeStyle;rounded=0;orthogonalLoop=1;jettySize=auto;html=1;" edge="1" parent="YQQYmlaHooakoJt94Tnt-1" source="3F3jtd5peiCfW54x8AI0-6" target="3F3jtd5peiCfW54x8AI0-8">
          <mxGeometry relative="1" as="geometry" />
        </mxCell>
        <mxCell id="3F3jtd5peiCfW54x8AI0-6" value="fill template patient data" style="rounded=1;whiteSpace=wrap;html=1;absoluteArcSize=1;arcSize=14;strokeWidth=2;" vertex="1" parent="YQQYmlaHooakoJt94Tnt-1">
          <mxGeometry x="230" y="860" width="120" height="90" as="geometry" />
        </mxCell>
        <mxCell id="3F3jtd5peiCfW54x8AI0-28" value="" style="edgeStyle=orthogonalEdgeStyle;rounded=0;orthogonalLoop=1;jettySize=auto;html=1;" edge="1" parent="YQQYmlaHooakoJt94Tnt-1" source="3F3jtd5peiCfW54x8AI0-7" target="3F3jtd5peiCfW54x8AI0-27">
          <mxGeometry relative="1" as="geometry" />
        </mxCell>
        <mxCell id="3F3jtd5peiCfW54x8AI0-7" value="fill email dummy &lt;br&gt;data" style="rounded=1;whiteSpace=wrap;html=1;absoluteArcSize=1;arcSize=14;strokeWidth=2;" vertex="1" parent="YQQYmlaHooakoJt94Tnt-1">
          <mxGeometry x="450" y="860" width="120" height="90" as="geometry" />
        </mxCell>
        <mxCell id="3F3jtd5peiCfW54x8AI0-16" value="" style="edgeStyle=orthogonalEdgeStyle;rounded=0;orthogonalLoop=1;jettySize=auto;html=1;" edge="1" parent="YQQYmlaHooakoJt94Tnt-1" source="3F3jtd5peiCfW54x8AI0-8" target="YQQYmlaHooakoJt94Tnt-29">
          <mxGeometry relative="1" as="geometry" />
        </mxCell>
        <mxCell id="3F3jtd5peiCfW54x8AI0-8" value="Replace merge tags with real data" style="rounded=1;whiteSpace=wrap;html=1;absoluteArcSize=1;arcSize=14;strokeWidth=2;" vertex="1" parent="YQQYmlaHooakoJt94Tnt-1">
          <mxGeometry x="230" y="990" width="120" height="90" as="geometry" />
        </mxCell>
        <mxCell id="3F3jtd5peiCfW54x8AI0-17" value="This don&#39;t exits when &lt;br&gt;we generate template for preview" style="text;html=1;align=center;verticalAlign=middle;resizable=0;points=[];autosize=1;" vertex="1" parent="YQQYmlaHooakoJt94Tnt-1">
          <mxGeometry x="430" y="750" width="200" height="30" as="geometry" />
        </mxCell>
        <mxCell id="3F3jtd5peiCfW54x8AI0-18" value="Yes" style="text;html=1;align=center;verticalAlign=middle;resizable=0;points=[];autosize=1;" vertex="1" parent="YQQYmlaHooakoJt94Tnt-1">
          <mxGeometry x="250" y="815" width="40" height="20" as="geometry" />
        </mxCell>
        <mxCell id="3F3jtd5peiCfW54x8AI0-19" value="&lt;div&gt;No&lt;/div&gt;&lt;div&gt;&lt;br&gt;&lt;/div&gt;" style="text;html=1;align=center;verticalAlign=middle;resizable=0;points=[];autosize=1;" vertex="1" parent="YQQYmlaHooakoJt94Tnt-1">
          <mxGeometry x="515" y="815" width="30" height="30" as="geometry" />
        </mxCell>
        <mxCell id="3F3jtd5peiCfW54x8AI0-23" value="" style="edgeStyle=orthogonalEdgeStyle;rounded=0;orthogonalLoop=1;jettySize=auto;html=1;" edge="1" parent="YQQYmlaHooakoJt94Tnt-1" source="3F3jtd5peiCfW54x8AI0-20" target="3F3jtd5peiCfW54x8AI0-22">
          <mxGeometry relative="1" as="geometry" />
        </mxCell>
        <mxCell id="3F3jtd5peiCfW54x8AI0-20" value="Preview&lt;br&gt;Operation" style="strokeWidth=2;html=1;shape=mxgraph.flowchart.start_1;whiteSpace=wrap;" vertex="1" parent="YQQYmlaHooakoJt94Tnt-1">
          <mxGeometry x="650" y="110" width="100" height="60" as="geometry" />
        </mxCell>
        <mxCell id="3F3jtd5peiCfW54x8AI0-21" value="Preview call can be done&lt;br&gt;from: &lt;br&gt;1. Edit template page&lt;br&gt;2. Template List page Preview" style="text;html=1;align=center;verticalAlign=middle;resizable=0;points=[];autosize=1;" vertex="1" parent="YQQYmlaHooakoJt94Tnt-1">
          <mxGeometry x="665" y="30" width="180" height="60" as="geometry" />
        </mxCell>
        <mxCell id="3F3jtd5peiCfW54x8AI0-25" value="" style="edgeStyle=orthogonalEdgeStyle;rounded=0;orthogonalLoop=1;jettySize=auto;html=1;" edge="1" parent="YQQYmlaHooakoJt94Tnt-1" source="3F3jtd5peiCfW54x8AI0-22" target="3F3jtd5peiCfW54x8AI0-24">
          <mxGeometry relative="1" as="geometry" />
        </mxCell>
        <mxCell id="3F3jtd5peiCfW54x8AI0-22" value="Call:&lt;br&gt;getLiveTemplatePreview" style="rounded=1;whiteSpace=wrap;html=1;absoluteArcSize=1;arcSize=14;strokeWidth=2;" vertex="1" parent="YQQYmlaHooakoJt94Tnt-1">
          <mxGeometry x="625" y="210" width="150" height="70" as="geometry" />
        </mxCell>
        <mxCell id="3F3jtd5peiCfW54x8AI0-26" style="edgeStyle=orthogonalEdgeStyle;rounded=0;orthogonalLoop=1;jettySize=auto;html=1;entryX=1;entryY=0.5;entryDx=0;entryDy=0;" edge="1" parent="YQQYmlaHooakoJt94Tnt-1" source="3F3jtd5peiCfW54x8AI0-24" target="3F3jtd5peiCfW54x8AI0-0">
          <mxGeometry relative="1" as="geometry">
            <Array as="points">
              <mxPoint x="700" y="545" />
            </Array>
          </mxGeometry>
        </mxCell>
        <mxCell id="3F3jtd5peiCfW54x8AI0-24" value="Call:&lt;br&gt;live preview API view" style="rounded=1;whiteSpace=wrap;html=1;absoluteArcSize=1;arcSize=14;strokeWidth=2;" vertex="1" parent="YQQYmlaHooakoJt94Tnt-1">
          <mxGeometry x="640" y="330" width="120" height="90" as="geometry" />
        </mxCell>
        <mxCell id="3F3jtd5peiCfW54x8AI0-30" value="" style="edgeStyle=orthogonalEdgeStyle;rounded=0;orthogonalLoop=1;jettySize=auto;html=1;" edge="1" parent="YQQYmlaHooakoJt94Tnt-1" source="3F3jtd5peiCfW54x8AI0-27" target="3F3jtd5peiCfW54x8AI0-29">
          <mxGeometry relative="1" as="geometry" />
        </mxCell>
        <mxCell id="3F3jtd5peiCfW54x8AI0-27" value="Replace merge tags with real data" style="rounded=1;whiteSpace=wrap;html=1;absoluteArcSize=1;arcSize=14;strokeWidth=2;" vertex="1" parent="YQQYmlaHooakoJt94Tnt-1">
          <mxGeometry x="450" y="990" width="120" height="90" as="geometry" />
        </mxCell>
        <mxCell id="3F3jtd5peiCfW54x8AI0-29" value="Preview Email/SMS" style="strokeWidth=2;html=1;shape=mxgraph.flowchart.terminator;whiteSpace=wrap;" vertex="1" parent="YQQYmlaHooakoJt94Tnt-1">
          <mxGeometry x="460" y="1130" width="100" height="60" as="geometry" />
        </mxCell>
      </root>
    </mxGraphModel>
  </diagram>
  <diagram id="gl0r3xwMLCpod1S2EtU6" name="Page-4">
    <mxGraphModel dx="868" dy="479" grid="1" gridSize="10" guides="1" tooltips="1" connect="1" arrows="1" fold="1" page="1" pageScale="1" pageWidth="850" pageHeight="1100" math="0" shadow="0">
      <root>
        <mxCell id="H2r-8ON0XV_xHGvAIli1-0" />
        <mxCell id="H2r-8ON0XV_xHGvAIli1-1" parent="H2r-8ON0XV_xHGvAIli1-0" />
        <mxCell id="H2r-8ON0XV_xHGvAIli1-14" value="" style="edgeStyle=orthogonalEdgeStyle;rounded=0;orthogonalLoop=1;jettySize=auto;html=1;" edge="1" parent="H2r-8ON0XV_xHGvAIli1-1" source="H2r-8ON0XV_xHGvAIli1-2" target="H2r-8ON0XV_xHGvAIli1-4">
          <mxGeometry relative="1" as="geometry" />
        </mxCell>
        <mxCell id="H2r-8ON0XV_xHGvAIli1-2" value="Edit" style="strokeWidth=2;html=1;shape=mxgraph.flowchart.start_1;whiteSpace=wrap;" vertex="1" parent="H2r-8ON0XV_xHGvAIli1-1">
          <mxGeometry x="120" y="90" width="100" height="60" as="geometry" />
        </mxCell>
        <mxCell id="H2r-8ON0XV_xHGvAIli1-15" value="" style="edgeStyle=orthogonalEdgeStyle;rounded=0;orthogonalLoop=1;jettySize=auto;html=1;" edge="1" parent="H2r-8ON0XV_xHGvAIli1-1" source="H2r-8ON0XV_xHGvAIli1-4" target="H2r-8ON0XV_xHGvAIli1-5">
          <mxGeometry relative="1" as="geometry" />
        </mxCell>
        <mxCell id="H2r-8ON0XV_xHGvAIli1-4" value="Go to Template Edit page" style="rounded=1;whiteSpace=wrap;html=1;absoluteArcSize=1;arcSize=14;strokeWidth=2;" vertex="1" parent="H2r-8ON0XV_xHGvAIli1-1">
          <mxGeometry x="130" y="190" width="80" height="70" as="geometry" />
        </mxCell>
        <mxCell id="H2r-8ON0XV_xHGvAIli1-16" style="edgeStyle=orthogonalEdgeStyle;rounded=0;orthogonalLoop=1;jettySize=auto;html=1;entryX=0;entryY=0.5;entryDx=0;entryDy=0;entryPerimeter=0;" edge="1" parent="H2r-8ON0XV_xHGvAIli1-1" source="H2r-8ON0XV_xHGvAIli1-5" target="H2r-8ON0XV_xHGvAIli1-10">
          <mxGeometry relative="1" as="geometry" />
        </mxCell>
        <mxCell id="H2r-8ON0XV_xHGvAIli1-5" value="Save &amp;amp; Return" style="rounded=1;whiteSpace=wrap;html=1;absoluteArcSize=1;arcSize=14;strokeWidth=2;" vertex="1" parent="H2r-8ON0XV_xHGvAIli1-1">
          <mxGeometry x="125" y="290" width="90" height="60" as="geometry" />
        </mxCell>
        <mxCell id="H2r-8ON0XV_xHGvAIli1-6" value="EmailTemplateAPIViewSet" style="strokeWidth=2;html=1;shape=mxgraph.flowchart.terminator;whiteSpace=wrap;" vertex="1" parent="H2r-8ON0XV_xHGvAIli1-1">
          <mxGeometry x="205" y="420" width="170" height="60" as="geometry" />
        </mxCell>
        <mxCell id="bTe7GBqo6RIe5_BFNSpy-6" value="" style="edgeStyle=orthogonalEdgeStyle;rounded=0;orthogonalLoop=1;jettySize=auto;html=1;" edge="1" parent="H2r-8ON0XV_xHGvAIli1-1" source="H2r-8ON0XV_xHGvAIli1-7" target="H2r-8ON0XV_xHGvAIli1-10">
          <mxGeometry relative="1" as="geometry" />
        </mxCell>
        <mxCell id="H2r-8ON0XV_xHGvAIli1-7" value="Duplicate/Create New Template" style="strokeWidth=2;html=1;shape=mxgraph.flowchart.start_1;whiteSpace=wrap;" vertex="1" parent="H2r-8ON0XV_xHGvAIli1-1">
          <mxGeometry x="368" y="90" width="115" height="60" as="geometry" />
        </mxCell>
        <mxCell id="H2r-8ON0XV_xHGvAIli1-18" style="edgeStyle=orthogonalEdgeStyle;rounded=0;orthogonalLoop=1;jettySize=auto;html=1;entryX=1;entryY=0.5;entryDx=0;entryDy=0;entryPerimeter=0;" edge="1" parent="H2r-8ON0XV_xHGvAIli1-1" source="H2r-8ON0XV_xHGvAIli1-8" target="H2r-8ON0XV_xHGvAIli1-10">
          <mxGeometry relative="1" as="geometry">
            <Array as="points">
              <mxPoint x="650" y="320" />
            </Array>
          </mxGeometry>
        </mxCell>
        <mxCell id="H2r-8ON0XV_xHGvAIli1-8" value="Delete" style="strokeWidth=2;html=1;shape=mxgraph.flowchart.start_1;whiteSpace=wrap;" vertex="1" parent="H2r-8ON0XV_xHGvAIli1-1">
          <mxGeometry x="600" y="90" width="100" height="60" as="geometry" />
        </mxCell>
        <mxCell id="H2r-8ON0XV_xHGvAIli1-9" value="BuiltInEmailTemplateAPIViewSet" style="strokeWidth=2;html=1;shape=mxgraph.flowchart.terminator;whiteSpace=wrap;" vertex="1" parent="H2r-8ON0XV_xHGvAIli1-1">
          <mxGeometry x="460" y="420" width="200" height="60" as="geometry" />
        </mxCell>
        <mxCell id="H2r-8ON0XV_xHGvAIli1-10" value="Is Built in template" style="strokeWidth=2;html=1;shape=mxgraph.flowchart.decision;whiteSpace=wrap;" vertex="1" parent="H2r-8ON0XV_xHGvAIli1-1">
          <mxGeometry x="375" y="270" width="100" height="100" as="geometry" />
        </mxCell>
        <mxCell id="H2r-8ON0XV_xHGvAIli1-12" value="" style="strokeWidth=2;html=1;shape=mxgraph.flowchart.annotation_2;align=left;labelPosition=right;pointerEvents=1;direction=south;" vertex="1" parent="H2r-8ON0XV_xHGvAIli1-1">
          <mxGeometry x="288" y="370" width="275" height="50" as="geometry" />
        </mxCell>
        <mxCell id="bTe7GBqo6RIe5_BFNSpy-8" value="Use Update operation&lt;br&gt;in viewset" style="text;html=1;align=center;verticalAlign=middle;resizable=0;points=[];autosize=1;" vertex="1" parent="H2r-8ON0XV_xHGvAIli1-1">
          <mxGeometry x="220" y="275" width="140" height="30" as="geometry" />
        </mxCell>
        <mxCell id="bTe7GBqo6RIe5_BFNSpy-9" value="Use Create operation&lt;br&gt;in viewset" style="text;html=1;align=center;verticalAlign=middle;resizable=0;points=[];autosize=1;" vertex="1" parent="H2r-8ON0XV_xHGvAIli1-1">
          <mxGeometry x="430" y="190" width="130" height="30" as="geometry" />
        </mxCell>
        <mxCell id="bTe7GBqo6RIe5_BFNSpy-10" value="Use delete operation&lt;br&gt;in viewset" style="text;html=1;align=center;verticalAlign=middle;resizable=0;points=[];autosize=1;" vertex="1" parent="H2r-8ON0XV_xHGvAIli1-1">
          <mxGeometry x="660" y="220" width="130" height="30" as="geometry" />
        </mxCell>
      </root>
    </mxGraphModel>
  </diagram>
</mxfile>
